<?xml version="1.0" standalone="no"?>
<!DOCTYPE svg PUBLIC "-//W3C//DTD SVG 20010904//EN"
 "http://www.w3.org/TR/2001/REC-SVG-20010904/DTD/svg10.dtd">
<svg version="1.0" xmlns="http://www.w3.org/2000/svg"
 width="999.000000pt" height="963.000000pt" viewBox="0 0 999.000000 963.000000"
 preserveAspectRatio="xMidYMid meet">

<g transform="translate(0.000000,963.000000) scale(0.100000,-0.100000)"
fill="red" stroke="none">
<path d="M3730 8984 c-435 -67 -1122 -338 -1635 -647 -624 -375 -1223 -915
-1616 -1457 -206 -283 -284 -449 -296 -630 -9 -141 28 -254 116 -352 91 -101
113 -110 756 -323 253 -84 560 -194 745 -268 493 -196 723 -285 753 -292 22
-6 27 -13 27 -39 0 -54 -19 -340 -40 -586 -47 -567 -32 -834 60 -1112 144
-431 506 -759 950 -859 513 -116 1045 133 1229 575 127 304 121 638 -20 1236
-63 265 -109 486 -109 522 0 24 4 27 43 33 114 15 236 36 372 63 83 16 213 40
290 52 663 104 1043 254 1324 525 338 324 441 703 299 1103 -55 158 -172 362
-332 585 -142 196 -392 474 -715 797 -384 383 -721 636 -1111 834 -435 221
-753 291 -1090 240z m458 -49 c121 -23 241 -61 372 -116 66 -28 119 -53 117
-55 -2 -2 -40 12 -86 31 -105 44 -252 89 -366 112 -72 14 -140 18 -332 18
-245 0 -277 7 -110 24 114 12 304 5 405 -14z m-298 -185 c94 -11 199 -45 208
-68 3 -8 1 -22 -4 -30 -12 -19 -47 -19 -241 -1 -263 24 -498 -13 -772 -121
-108 -42 -135 -50 -142 -39 -21 33 160 136 338 193 206 66 416 89 613 66z
m1182 -197 c209 -132 441 -308 633 -483 101 -92 130 -132 39 -54 -71 61 -324
263 -447 358 -122 93 -318 225 -410 276 -42 23 -77 44 -77 46 0 9 155 -76 262
-143z m-185 -104 c49 -18 73 -48 73 -93 0 -43 -30 -86 -60 -86 -9 0 -21 -5
-28 -12 -16 -16 -57 7 -81 46 -20 33 -25 95 -10 133 7 18 16 23 43 23 19 0 47
-5 63 -11z m-2035 -90 c35 -25 68 -90 68 -134 0 -62 -56 -152 -112 -181 -54
-28 -76 -19 -160 65 -43 44 -78 86 -78 94 0 27 50 115 77 136 14 12 37 21 52
21 14 0 35 8 46 16 25 19 65 12 107 -17z m-579 -87 c20 -18 23 -62 5 -83 -7
-9 -44 -35 -83 -60 -387 -244 -827 -636 -1169 -1041 -27 -32 -54 -58 -61 -58
-6 0 -20 9 -29 19 -22 24 -18 32 72 156 231 316 505 593 833 842 109 83 332
235 359 246 20 7 51 -2 73 -21z m1604 -21 c48 -24 107 -88 128 -137 31 -74 14
-195 -36 -266 -30 -42 -106 -88 -146 -88 -18 0 -48 -11 -69 -25 -68 -46 -150
-28 -203 45 -91 126 -55 345 73 442 28 20 66 41 85 47 49 14 122 6 168 -18z
m1543 -437 c86 -47 150 -152 150 -248 0 -38 -13 -121 -32 -199 -5 -21 -18 -47
-30 -59 -18 -18 -28 -20 -85 -14 -77 8 -171 52 -201 93 -11 15 -40 50 -65 77
-74 79 -101 139 -102 218 0 60 3 70 29 97 73 76 230 93 336 35z m-4120 -121
c-303 -275 -651 -660 -840 -925 -34 -49 -48 -62 -31 -30 42 79 300 394 489
598 126 136 452 443 472 444 3 0 -38 -39 -90 -87z m581 -148 c74 -48 105 -139
75 -219 -19 -51 -43 -74 -111 -110 -56 -29 -91 -32 -138 -12 -124 53 -144 219
-39 319 62 59 142 67 213 22z m943 -379 c143 -70 221 -239 167 -361 -40 -91
-93 -125 -194 -125 -80 0 -150 33 -207 97 -40 46 -48 67 -70 176 -20 99 10
185 79 226 50 30 148 25 225 -13z m-1853 -355 c31 -31 39 -46 39 -75 0 -48
-12 -71 -71 -128 -51 -50 -69 -56 -107 -34 -85 47 -81 205 6 259 47 29 89 22
133 -22z m3326 -26 c83 -35 117 -95 111 -200 -3 -60 -8 -78 -31 -108 -36 -48
-81 -70 -138 -71 -61 0 -106 28 -144 89 -25 41 -30 58 -30 115 0 85 28 132
100 166 59 28 83 29 132 9z m1183 -94 c44 -32 62 -75 61 -146 -1 -78 -18 -124
-57 -153 -16 -12 -35 -27 -42 -33 -30 -26 -159 37 -187 90 -19 37 -19 64 0
127 19 63 59 111 110 129 45 16 79 12 115 -14z m937 -168 c97 -77 117 -208 46
-301 -33 -44 -130 -92 -185 -92 -76 0 -145 61 -168 150 -27 100 25 209 125
264 49 27 136 17 182 -21z m-4602 -101 c30 -16 72 -64 84 -95 6 -16 11 -52 11
-81 0 -89 -71 -166 -154 -166 -50 0 -117 32 -153 73 -121 138 51 357 212 269z
m-1531 -367 c41 -83 115 -165 191 -214 58 -37 41 -41 -30 -7 -57 26 -142 112
-174 174 -43 85 -61 195 -44 273 6 27 9 15 14 -58 5 -80 11 -103 43 -168z
m4372 -20 c4 -9 -4 -24 -21 -38 -23 -18 -203 -127 -210 -127 -5 0 -364 -204
-465 -265 -419 -251 -501 -296 -516 -284 -8 6 -14 18 -14 26 0 19 326 228 623
400 335 193 459 260 537 289 47 17 60 17 66 -1z m-1672 -86 c76 -52 103 -142
72 -236 -23 -70 -93 -133 -148 -133 -13 0 -32 -7 -42 -15 -47 -36 -111 -2
-151 79 -24 49 -27 65 -23 130 3 63 8 81 33 118 43 61 104 91 173 84 32 -3 67
-14 86 -27z m1591 -112 c58 -16 136 -98 163 -170 37 -97 26 -212 -27 -285 -10
-15 -51 -44 -89 -65 -60 -32 -80 -37 -135 -37 -83 0 -119 23 -165 109 -28 51
-36 77 -40 136 -7 105 27 210 92 284 45 50 96 58 201 28z m2290 -114 c-47 -80
-150 -207 -227 -278 -156 -142 -377 -265 -630 -349 -168 -56 -211 -59 -68 -5
223 84 505 236 645 348 81 65 212 203 256 270 50 77 66 87 24 14z m-2605 -128
c24 -29 -1 -52 -148 -135 -81 -46 -214 -124 -297 -173 -227 -137 -220 -133
-239 -118 -9 7 -16 23 -16 36 0 46 592 404 671 405 9 0 22 -7 29 -15z m1615
-9 c18 -8 40 -27 49 -43 8 -16 22 -35 30 -42 20 -17 20 -44 0 -83 -21 -40 -92
-116 -123 -132 -36 -18 -105 -19 -146 -2 -67 28 -95 117 -54 170 33 42 175
144 202 146 4 0 23 -6 42 -14z m-1720 -281 c0 -34 -13 -44 -287 -204 -34 -20
-61 -7 -66 31 -3 28 48 76 151 142 83 53 116 66 162 63 37 -2 40 -4 40 -32z
m199 -121 c45 -17 -3 -71 -98 -113 -57 -25 -89 -27 -106 -6 -25 31 3 61 87 94
83 32 93 34 117 25z m-1567 -249 c159 -50 333 -95 458 -119 305 -59 744 -80
1164 -55 101 6 184 9 186 7 2 -2 13 -60 25 -128 12 -69 50 -251 86 -405 36
-154 74 -334 85 -400 26 -153 36 -413 20 -526 -60 -427 -314 -714 -729 -827
-89 -24 -113 -26 -282 -26 -168 0 -194 3 -280 27 -391 107 -701 376 -850 736
-80 195 -112 393 -112 691 0 192 7 306 42 720 5 63 10 171 10 239 0 108 2 122
16 117 8 -3 81 -26 161 -51z"/>
<path d="M4840 8370 c6 -11 13 -20 16 -20 2 0 0 9 -6 20 -6 11 -13 20 -16 20
-2 0 0 -9 6 -20z"/>
<path d="M2730 8240 c-13 -8 -13 -11 2 -26 19 -19 38 -11 38 17 0 21 -16 24
-40 9z"/>
<path d="M2748 8073 c6 -2 18 -2 25 0 6 3 1 5 -13 5 -14 0 -19 -2 -12 -5z"/>
<path d="M3768 8173 c7 -3 16 -2 19 1 4 3 -2 6 -13 5 -11 0 -14 -3 -6 -6z"/>
<path d="M3700 8144 c-39 -34 -60 -74 -59 -116 l1 -33 9 38 c14 58 37 96 72
117 18 11 27 20 20 20 -6 0 -25 -12 -43 -26z"/>
<path d="M3822 8058 c5 -24 8 -71 6 -106 -5 -73 7 -77 40 -12 30 60 29 95 -7
131 -41 41 -51 37 -39 -13z"/>
<path d="M3570 7903 c0 -33 18 -75 48 -105 19 -21 34 -28 61 -27 23 1 28 3 14
6 -24 5 -79 66 -106 118 -14 26 -16 27 -17 8z"/>
<path d="M5195 7775 c-68 -18 -99 -55 -91 -108 5 -32 41 -117 49 -117 1 0 3
23 4 51 4 102 36 149 114 174 l44 14 -35 0 c-19 0 -57 -6 -85 -14z"/>
<path d="M5256 7701 c-3 -5 22 -12 56 -15 35 -4 75 -15 90 -24 36 -21 69 -88
79 -161 l8 -56 -3 67 c-2 57 -7 74 -32 110 -43 61 -87 88 -145 88 -26 0 -50
-4 -53 -9z"/>
<path d="M5220 7634 c0 -20 6 -34 16 -38 26 -10 27 -1 5 35 l-21 34 0 -31z"/>
<path d="M5231 7510 c0 -8 4 -24 9 -35 5 -13 9 -14 9 -5 0 8 -4 24 -9 35 -5
13 -9 14 -9 5z"/>
<path d="M5383 7461 c-20 -17 -21 -20 -6 -26 11 -4 22 1 30 11 26 36 12 45
-24 15z"/>
<path d="M1735 7491 c-50 -30 -68 -58 -72 -108 -5 -53 19 -102 57 -123 22 -12
22 -12 -1 19 -14 20 -24 49 -26 83 -4 48 -1 57 27 91 25 30 38 37 66 37 41 0
79 -23 99 -59 9 -17 14 -20 15 -10 0 21 -43 67 -75 79 -37 14 -56 12 -90 -9z"/>
<path d="M1802 7380 c-8 -13 -8 -20 -2 -20 6 0 13 7 17 15 9 24 -1 27 -15 5z"/>
<path d="M1830 7300 c-13 -8 -12 -10 3 -10 9 0 17 5 17 10 0 12 -1 12 -20 0z"/>
<path d="M2633 7110 c-12 -5 -27 -18 -33 -30 -11 -21 -11 -21 19 -5 48 24 110
29 161 11 38 -12 42 -13 25 0 -40 30 -126 42 -172 24z"/>
<path d="M2643 6984 c-23 -17 -33 -34 -33 -52 0 -26 0 -26 24 9 24 35 56 54
106 62 14 2 5 5 -20 6 -34 0 -53 -5 -77 -25z"/>
<path d="M2922 6915 c0 -16 2 -22 5 -12 2 9 2 23 0 30 -3 6 -5 -1 -5 -18z"/>
<path d="M886 6744 c-20 -19 -20 -35 -3 -59 10 -12 16 -14 21 -7 4 7 15 12 26
12 10 0 20 6 23 13 3 8 -4 13 -22 12 -21 0 -26 4 -24 23 3 26 0 27 -21 6z"/>
<path d="M815 6685 c10 -45 33 -75 58 -74 22 0 22 0 -2 12 -13 6 -33 30 -43
52 -16 34 -18 36 -13 10z"/>
<path d="M4216 6559 c6 -11 44 -12 44 -1 0 4 -11 8 -25 8 -14 1 -22 -2 -19 -7z"/>
<path d="M5370 6579 c0 -5 5 -7 10 -4 6 3 10 8 10 11 0 2 -4 4 -10 4 -5 0 -10
-5 -10 -11z"/>
<path d="M5438 6528 c-15 -16 -41 -31 -58 -34 -36 -8 -35 -28 2 -32 29 -4 83
37 91 68 8 30 -5 29 -35 -2z"/>
<path d="M6366 6479 c31 -35 44 -64 44 -99 0 -88 -81 -136 -160 -95 -33 17
-35 14 -19 -18 30 -59 101 -74 160 -34 18 12 39 34 46 47 27 54 8 144 -39 186
-35 32 -56 40 -32 13z"/>
<path d="M6246 6404 c-3 -9 -2 -23 4 -32 7 -14 9 -10 10 16 0 35 -5 41 -14 16z"/>
<path d="M6180 6226 c0 -2 8 -10 18 -17 15 -13 16 -12 3 4 -13 16 -21 21 -21
13z"/>
<path d="M1759 6295 c27 -35 27 -75 0 -109 -11 -14 -16 -26 -10 -26 24 0 42
48 39 102 -3 47 -6 53 -27 56 l-24 4 22 -27z"/>
<path d="M2982 5853 c6 -16 14 -48 18 -73 l7 -45 2 43 c0 24 -6 56 -14 72 -19
38 -28 39 -13 3z"/>
<path d="M2790 5758 c0 -52 66 -119 103 -105 8 3 25 20 37 37 22 31 22 32 2
21 -11 -6 -32 -11 -45 -11 -28 0 -77 35 -77 55 0 8 -4 17 -10 20 -6 3 -10 -4
-10 -17z"/>
<path d="M4463 5763 c9 -2 25 -2 35 0 9 3 1 5 -18 5 -19 0 -27 -2 -17 -5z"/>
<path d="M4610 5723 c0 -8 61 -107 75 -121 8 -8 -10 39 -29 76 -16 31 -46 60
-46 45z"/>
<path d="M4481 5524 c0 -11 3 -14 6 -6 3 7 2 16 -1 19 -3 4 -6 -2 -5 -13z"/>
<path d="M4387 5425 c12 -22 52 -61 56 -54 1 2 -13 20 -32 39 -19 19 -29 26
-24 15z"/>
<path d="M7301 4830 c-133 -27 -264 -73 -394 -138 -358 -181 -649 -466 -1007
-987 -57 -82 -131 -182 -166 -220 -106 -121 -192 -242 -238 -338 -64 -131 -80
-200 -81 -337 0 -135 22 -213 87 -310 81 -122 190 -194 562 -375 404 -197 592
-274 779 -321 88 -22 107 -30 103 -43 -3 -9 -26 -126 -52 -261 -42 -220 -47
-260 -48 -395 -1 -131 2 -159 22 -225 118 -375 452 -610 832 -586 128 8 208
28 315 81 192 93 294 219 344 425 55 227 64 498 22 665 -29 113 -92 232 -161
306 l-58 62 181 -7 c172 -6 187 -5 277 18 374 95 867 391 957 574 35 72 37
165 3 262 -30 88 -449 921 -549 1092 -45 76 -81 140 -81 142 0 2 37 26 83 54
46 28 92 61 102 72 18 20 18 21 -21 61 -46 48 -137 120 -179 141 -16 9 -88 35
-160 58 -167 54 -175 59 -266 144 -213 200 -495 346 -756 391 -119 21 -333 18
-452 -5z m106 -206 c-3 -3 -12 -4 -19 -1 -8 3 -5 6 6 6 11 1 17 -2 13 -5z
m243 -15 c0 -6 -4 -7 -10 -4 -5 3 -10 11 -10 16 0 6 5 7 10 4 6 -3 10 -11 10
-16z m-423 -45 c-3 -3 -12 -4 -19 -1 -8 3 -5 6 6 6 11 1 17 -2 13 -5z m276
-11 c-7 -2 -19 -2 -25 0 -7 3 -2 5 12 5 14 0 19 -2 13 -5z m114 1 c-3 -3 -12
-4 -19 -1 -8 3 -5 6 6 6 11 1 17 -2 13 -5z m-302 -54 c-11 -5 -27 -9 -35 -9
-9 0 -8 4 5 9 11 5 27 9 35 9 9 0 8 -4 -5 -9z m-274 -33 c-10 -9 -11 -8 -5 6
3 10 9 15 12 12 3 -3 0 -11 -7 -18z m-31 3 c-8 -5 -19 -10 -25 -10 -5 0 -3 5
5 10 8 5 20 10 25 10 6 0 3 -5 -5 -10z m-80 -40 c-8 -5 -19 -10 -25 -10 -5 0
-3 5 5 10 8 5 20 10 25 10 6 0 3 -5 -5 -10z m136 -45 c-36 -19 -45 -19 -20 0
10 8 26 14 34 15 8 0 2 -7 -14 -15z m-116 -55 c-8 -5 -19 -10 -25 -10 -5 0 -3
5 5 10 8 5 20 10 25 10 6 0 3 -5 -5 -10z m-80 -34 c0 -3 -4 -8 -10 -11 -5 -3
-10 -1 -10 4 0 6 5 11 10 11 6 0 10 -2 10 -4z m1753 -64 c41 -18 47 -25 47
-51 0 -19 -7 -34 -19 -40 -10 -6 -74 -11 -142 -11 -112 -1 -243 -11 -339 -24
-69 -10 77 23 170 39 116 20 130 23 130 37 0 13 -83 5 -230 -23 -207 -40 -369
-95 -538 -185 -117 -61 -142 -78 -264 -182 -86 -72 -115 -82 -104 -37 3 13 2
27 -4 30 -6 3 -10 51 -10 109 0 87 4 112 26 167 49 121 105 175 154 149 31
-16 25 -66 -14 -132 -19 -31 -46 -90 -61 -130 l-26 -73 33 31 c137 126 335
234 538 292 92 26 134 36 250 56 14 3 99 3 190 2 143 -2 171 -5 213 -24z
m-1923 -62 c0 -5 -5 -10 -11 -10 -5 0 -7 5 -4 10 3 6 8 10 11 10 2 0 4 -4 4
-10z m-170 -14 c0 -2 -8 -10 -17 -17 -16 -13 -17 -12 -4 4 13 16 21 21 21 13z
m2495 -16 c-3 -5 0 -19 7 -30 12 -19 9 -25 -34 -63 -26 -23 -102 -91 -170
-152 -67 -60 -163 -153 -213 -205 -176 -185 -212 -217 -299 -260 -96 -47 -194
-62 -260 -40 -52 17 -36 30 93 74 174 61 214 88 341 236 167 195 326 333 480
418 63 35 63 35 55 22z m105 -74 c0 -3 -4 -8 -10 -11 -5 -3 -10 -1 -10 4 0 6
5 11 10 11 6 0 10 -2 10 -4z m-2700 -40 c0 -8 -7 -16 -15 -20 -12 -4 -13 -2
-2 14 14 24 17 25 17 6z m-34 -60 c0 -14 -5 -21 -9 -17 -4 4 -5 15 -1 24 9 24
12 21 10 -7z m54 -21 c-7 -8 -20 -15 -29 -14 -11 0 -9 3 7 9 12 5 22 15 22 21
0 7 3 9 6 6 4 -4 1 -13 -6 -22z m-630 -617 c0 -6 -3 -8 -7 -5 -3 4 -13 1 -22
-6 -14 -11 -14 -10 -2 6 15 20 31 22 31 5z m-70 -56 c0 -5 -7 -17 -15 -28 -14
-18 -14 -17 -4 9 12 27 19 34 19 19z m13 -67 c-3 -9 -8 -14 -10 -11 -3 3 -2 9
2 15 9 16 15 13 8 -4z m-26 -37 c-3 -8 -6 -5 -6 6 -1 11 2 17 5 13 3 -3 4 -12
1 -19z m-70 -70 c-3 -8 -6 -5 -6 6 -1 11 2 17 5 13 3 -3 4 -12 1 -19z m3304
-61 c-10 -9 -11 -8 -5 6 3 10 9 15 12 12 3 -3 0 -11 -7 -18z m-3334 -89 c-3
-8 -6 -5 -6 6 -1 11 2 17 5 13 3 -3 4 -12 1 -19z m3163 -1 c0 -2 -10 -12 -22
-23 l-23 -19 19 23 c18 21 26 27 26 19z m248 -32 c-3 -3 -9 2 -12 12 -6 14 -5
15 5 6 7 -7 10 -15 7 -18z m-202 -16 c3 -6 -2 -20 -13 -30 -19 -19 -19 -19
-17 8 1 16 2 29 3 31 3 6 21 1 27 -9z m-86 -3 c0 -2 -7 -9 -15 -16 -13 -11
-14 -10 -9 4 5 14 24 23 24 12z m-3105 -24 c-3 -3 -11 0 -18 7 -9 10 -8 11 6
5 10 -3 15 -9 12 -12z m3059 -16 c-3 -8 -1 -17 5 -21 6 -3 11 -11 11 -18 0 -6
-6 -3 -13 8 -9 12 -19 15 -28 10 -8 -5 -5 1 5 13 22 25 28 28 20 8z m252 -44
c-17 -16 -18 -16 -5 5 7 12 15 20 18 17 3 -2 -3 -12 -13 -22z m196 -24 c-7 -7
-12 -8 -12 -2 0 14 12 26 19 19 2 -3 -1 -11 -7 -17z m-422 -18 c-6 -10 -16
-22 -23 -26 -9 -6 -9 -4 1 8 7 9 12 20 11 24 -3 18 1 25 11 19 7 -4 7 -12 0
-25z m-100 17 c0 -2 -10 -12 -22 -23 l-23 -19 19 23 c18 21 26 27 26 19z m438
-22 c-6 -14 -13 -23 -15 -21 -5 5 15 46 22 46 3 0 -1 -11 -7 -25z m58 -27 c-9
-12 -16 -19 -16 -15 0 11 24 47 28 42 2 -2 -3 -14 -12 -27z m-226 7 c0 -1 -6
-7 -13 -13 -10 -8 -13 -6 -13 7 0 11 6 17 13 14 7 -3 13 -6 13 -8z m-126 -37
c-35 -41 -44 -49 -44 -42 0 9 51 64 58 64 3 0 -3 -10 -14 -22z m247 -1 c-10
-9 -11 -8 -5 6 3 10 9 15 12 12 3 -3 0 -11 -7 -18z m-477 -11 c-3 -8 -13 -17
-22 -21 -13 -5 -13 -2 3 15 21 24 26 25 19 6z m536 -26 c0 -5 -5 -10 -11 -10
-5 0 -7 5 -4 10 3 6 8 10 11 10 2 0 4 -4 4 -10z m-250 -3 c0 -2 -9 -12 -20
-22 -24 -21 -27 -14 -4 9 15 15 24 20 24 13z m-110 -21 c0 -2 -7 -7 -16 -10
-8 -3 -12 -2 -9 4 6 10 25 14 25 6z m335 -6 c3 -5 1 -10 -4 -10 -6 0 -11 5
-11 10 0 6 2 10 4 10 3 0 8 -4 11 -10z m-111 -25 c-4 -8 -11 -15 -16 -15 -6 0
-5 6 2 15 7 8 14 15 16 15 2 0 1 -7 -2 -15z m-494 -9 c0 -2 -8 -10 -17 -17
-16 -13 -17 -12 -4 4 13 16 21 21 21 13z m276 -8 c5 4 5 3 1 -2 -12 -15 -34
-15 -34 0 0 9 4 11 12 4 7 -5 16 -6 21 -2z m39 -7 c-3 -6 -11 -11 -16 -11 -5
0 -4 6 3 14 14 16 24 13 13 -3z m149 -16 c-4 -8 -11 -15 -16 -15 -6 0 -5 6 2
15 7 8 14 15 16 15 2 0 1 -7 -2 -15z m87 -12 c-24 -34 -111 -120 -111 -110 0
4 0 9 0 12 0 3 2 4 3 3 8 -6 36 24 33 35 -1 7 -1 8 2 4 5 -9 32 11 32 25 0 5
-5 6 -12 2 -7 -4 -8 -3 -4 5 4 6 11 9 16 6 5 -3 17 6 27 19 10 14 22 26 26 26
5 0 -1 -12 -12 -27z m-127 -28 c-4 -9 -16 -21 -28 -27 -19 -10 -18 -8 4 15 29
31 31 32 24 12z m-2904 -16 c0 -6 -4 -7 -10 -4 -5 3 -10 11 -10 16 0 6 5 7 10
4 6 -3 10 -11 10 -16z m2387 -2 c-12 -13 -24 -22 -26 -20 -6 4 30 43 40 43 5
0 -2 -10 -14 -23z m233 -16 c-5 -11 -15 -23 -21 -27 -6 -3 -3 5 6 20 20 30 30
35 15 7z m311 2 c13 -16 12 -17 -3 -4 -10 7 -18 15 -18 17 0 8 8 3 21 -13z
m-2871 -23 c8 -5 11 -10 5 -10 -5 0 -17 5 -25 10 -8 5 -10 10 -5 10 6 0 17 -5
25 -10z m2390 7 c0 -2 -10 -12 -22 -23 l-23 -19 19 23 c18 21 26 27 26 19z
m-92 -61 c12 -3 11 -4 -3 -3 -12 1 -20 10 -21 22 -1 14 0 15 3 3 2 -9 12 -19
21 -22z m538 -2 c-25 -18 -41 -18 -24 0 7 8 16 12 21 9 4 -2 7 1 7 8 0 7 3 9
7 5 5 -4 -1 -14 -11 -22z m-303 -26 c-6 -11 -31 -10 -37 1 -3 5 5 8 18 7 13 0
22 -4 19 -8z m-2270 -15 c-7 -2 -19 -2 -25 0 -7 3 -2 5 12 5 14 0 19 -2 13 -5z
m50 -10 c-7 -2 -19 -2 -25 0 -7 3 -2 5 12 5 14 0 19 -2 13 -5z m314 -69 c-3
-3 -12 -4 -19 -1 -8 3 -5 6 6 6 11 1 17 -2 13 -5z m40 -10 c-3 -3 -12 -4 -19
-1 -8 3 -5 6 6 6 11 1 17 -2 13 -5z m-200 -80 c-3 -3 -12 -4 -19 -1 -8 3 -5 6
6 6 11 1 17 -2 13 -5z m511 -19 c-3 -3 -9 2 -12 12 -6 14 -5 15 5 6 7 -7 10
-15 7 -18z m-33 5 c3 -6 -1 -7 -9 -4 -18 7 -21 14 -7 14 6 0 13 -4 16 -10z
m-260 -39 c79 -25 59 -26 -30 -1 -38 10 -61 19 -50 19 11 1 47 -8 80 -18z
m152 13 c-3 -3 -12 -4 -19 -1 -8 3 -5 6 6 6 11 1 17 -2 13 -5z m113 -24 c0 -5
-5 -10 -11 -10 -5 0 -7 5 -4 10 3 6 8 10 11 10 2 0 4 -4 4 -10z m30 -10 c0 -5
-5 -10 -11 -10 -5 0 -7 5 -4 10 3 6 8 10 11 10 2 0 4 -4 4 -10z m1145 -382
c80 -82 132 -174 165 -288 31 -105 38 -314 16 -472 -34 -245 -80 -361 -182
-462 -75 -75 -147 -119 -261 -159 -84 -30 -95 -32 -243 -32 -134 0 -165 3
-230 23 -200 62 -364 199 -459 382 -103 198 -111 333 -43 749 23 139 42 256
42 260 0 4 84 5 188 4 153 -3 250 3 537 31 193 18 361 34 375 35 18 1 42 -18
95 -71z"/>
<path d="M8820 2890 c0 -5 5 -10 10 -10 6 0 10 5 10 10 0 6 -4 10 -10 10 -5 0
-10 -4 -10 -10z"/>
<path d="M0 10 c0 -7 1672 -10 4995 -10 3323 0 4995 3 4995 10 0 7 -1672 10
-4995 10 -3323 0 -4995 -3 -4995 -10z"/>
</g>
</svg>
